<?xml version="1.0" encoding="UTF-8"?>
<!-- Converted by misc2svg (http://www.network-science.de/tools/misc2svg/) -->
<svg xmlns="http://www.w3.org/2000/svg" xmlns:xlink="http://www.w3.org/1999/xlink" width="173pt" height="153pt" viewBox="0 0 173 153" version="1.1">
<g id="misc2svg">
<path style="fill-rule:nonzero;fill:rgb(0%,0%,0%);fill-opacity:1;stroke-width:0.3985;stroke-linecap:butt;stroke-linejoin:miter;stroke:rgb(0%,0%,0%);stroke-opacity:1;stroke-miterlimit:10;" d="M 0.99275 -28.34925 C 0.99275 -27.796125 0.549 -27.3555 0.002125 -27.3555 C -0.547875 -27.3555 -0.991625 -27.796125 -0.991625 -28.34925 C -0.991625 -28.896125 -0.547875 -29.339875 0.002125 -29.339875 C 0.549 -29.339875 0.99275 -28.896125 0.99275 -28.34925 Z M 0.99275 -28.34925 " transform="matrix(1.25,0,0,-1.25,33.1575,80.00875)"/>
<path style=" stroke:none;fill-rule:nonzero;fill:rgb(0%,0%,0%);fill-opacity:1;" d="M 37.300781 131.289062 C 37.300781 128.75 35.425781 126.71875 33.160156 126.71875 C 30.914062 126.71875 29.019531 128.710938 29.019531 131.289062 C 29.019531 133.847656 30.933594 135.78125 33.160156 135.78125 C 35.425781 135.78125 37.300781 133.808594 37.300781 131.289062 Z M 36.011719 131.113281 C 36.011719 134.414062 34.3125 135.449219 33.160156 135.449219 C 31.96875 135.449219 30.289062 134.355469 30.289062 131.113281 C 30.289062 127.890625 32.125 127.03125 33.160156 127.03125 C 34.234375 127.03125 36.011719 127.910156 36.011719 131.113281 Z M 36.011719 131.113281 "/>
<path style="fill:none;stroke-width:0.3985;stroke-linecap:butt;stroke-linejoin:miter;stroke:rgb(0%,0%,0%);stroke-opacity:1;stroke-miterlimit:10;" d="M 4.252125 -28.34925 C 4.252125 -25.996125 2.349 -24.093 0.002125 -24.093 C -2.34475 -24.093 -4.251 -25.996125 -4.251 -28.34925 C -4.251 -30.696125 -2.34475 -32.59925 0.002125 -32.59925 C 2.349 -32.59925 4.252125 -30.696125 4.252125 -28.34925 Z M 4.252125 -28.34925 " transform="matrix(1.25,0,0,-1.25,33.1575,80.00875)"/>
<path style=" stroke:none;fill-rule:nonzero;fill:rgb(0%,0%,0%);fill-opacity:1;" d="M 19.03125 90.453125 C 19.03125 90.21875 18.796875 90.21875 18.621094 90.21875 L 11.824219 90.21875 C 11.648438 90.21875 11.414062 90.21875 11.414062 90.453125 C 11.414062 90.707031 11.648438 90.707031 11.824219 90.707031 L 18.621094 90.707031 C 18.796875 90.707031 19.03125 90.707031 19.03125 90.453125 Z M 19.03125 90.453125 "/>
<path style=" stroke:none;fill-rule:nonzero;fill:rgb(0%,0%,0%);fill-opacity:1;" d="M 24.519531 90.453125 C 24.519531 90.21875 24.285156 90.21875 24.109375 90.21875 L 17.3125 90.21875 C 17.136719 90.21875 16.902344 90.21875 16.902344 90.453125 C 16.902344 90.707031 17.136719 90.707031 17.3125 90.707031 L 24.109375 90.707031 C 24.285156 90.707031 24.519531 90.707031 24.519531 90.453125 Z M 24.519531 90.453125 "/>
<path style=" stroke:none;fill-rule:nonzero;fill:rgb(0%,0%,0%);fill-opacity:1;" d="M 33.101562 90.453125 C 33.101562 90.394531 33.042969 90.355469 33.003906 90.335938 C 31.65625 89.867188 30.679688 88.714844 30.445312 87.328125 C 30.425781 87.269531 30.367188 87.210938 30.308594 87.210938 L 30.074219 87.210938 C 29.996094 87.210938 29.9375 87.269531 29.9375 87.367188 C 30.132812 88.519531 30.796875 89.535156 31.714844 90.21875 L 22.28125 90.21875 C 22.125 90.21875 22.027344 90.335938 22.027344 90.453125 C 22.027344 90.589844 22.125 90.707031 22.28125 90.707031 L 31.714844 90.707031 C 30.796875 91.390625 30.132812 92.40625 29.9375 93.558594 C 29.9375 93.65625 29.996094 93.714844 30.074219 93.714844 L 30.308594 93.714844 C 30.367188 93.714844 30.425781 93.65625 30.445312 93.597656 C 30.679688 92.210938 31.65625 91.058594 33.003906 90.589844 C 33.042969 90.570312 33.101562 90.53125 33.101562 90.453125 Z M 33.101562 90.453125 "/>
<path style=" stroke:none;fill-rule:nonzero;fill:rgb(0%,0%,0%);fill-opacity:1;" d="M 24.285156 100.414062 C 24.285156 100.335938 24.226562 100.316406 24.167969 100.316406 C 24.011719 100.316406 23.757812 100.433594 23.621094 100.511719 C 23.230469 100.472656 23.230469 100.023438 23.230469 99.183594 C 23.230469 97.835938 23.757812 94.105469 24.148438 92.464844 C 24.167969 92.386719 24.167969 92.367188 24.167969 92.25 C 24.167969 92.210938 24.167969 92.074219 24.070312 92.074219 C 24.03125 92.074219 24.011719 92.074219 23.757812 92.367188 L 20.242188 96.566406 C 19.34375 97.582031 18.757812 98.246094 17.742188 99.222656 C 16.863281 97.5625 16.101562 93.519531 15.90625 92.308594 C 15.867188 92.09375 15.867188 92.054688 15.730469 92.054688 C 15.515625 92.054688 15.261719 92.230469 15.183594 92.289062 C 14.96875 92.445312 14.96875 92.542969 14.929688 92.738281 C 14.832031 93.441406 14.597656 95.121094 13.816406 97.289062 C 13.328125 98.636719 12.722656 100.316406 12.175781 100.316406 C 11.941406 100.316406 11.511719 100.199219 11.277344 99.964844 C 11.21875 99.925781 11.199219 99.90625 11.160156 99.90625 C 10.984375 99.90625 10.710938 100.472656 10.710938 100.824219 C 10.710938 100.960938 10.710938 101.078125 11.121094 101.273438 C 11.453125 101.449219 11.804688 101.46875 11.804688 101.46875 C 12.546875 101.46875 13.269531 99.730469 13.542969 99.066406 C 14.011719 97.914062 14.578125 96.3125 14.773438 95.511719 L 15.183594 93.910156 L 15.183594 93.910156 L 15.496094 95.335938 C 15.515625 95.511719 15.964844 97.445312 16.316406 98.441406 C 16.550781 99.203125 16.902344 99.867188 17.175781 100.355469 C 17.234375 100.414062 17.292969 100.414062 17.332031 100.414062 C 17.390625 100.414062 17.429688 100.414062 17.546875 100.316406 C 18.425781 99.457031 19.265625 98.539062 20.066406 97.601562 L 22.800781 94.398438 C 22.585938 95.609375 22.175781 98.460938 22.175781 99.691406 C 22.175781 100.746094 22.175781 101.214844 22.820312 101.214844 C 23.347656 101.214844 24.285156 100.648438 24.285156 100.414062 Z M 24.285156 100.414062 "/>
<path style=" stroke:none;fill-rule:nonzero;fill:rgb(0%,0%,0%);fill-opacity:1;" d="M 32.558594 99 C 32.558594 97.632812 31.5625 96.578125 30.019531 96.578125 C 27.949219 96.578125 25.9375 98.53125 25.9375 100.503906 C 25.9375 101.910156 26.972656 102.886719 28.476562 102.886719 C 30.546875 102.886719 32.558594 100.992188 32.558594 99 Z M 31.699219 98.707031 C 31.699219 99.332031 31.425781 100.621094 30.625 101.539062 C 30.019531 102.242188 29.21875 102.59375 28.535156 102.59375 C 27.617188 102.59375 26.835938 101.96875 26.835938 100.679688 C 26.835938 100.230469 26.953125 99 27.753906 98.003906 C 28.339844 97.300781 29.179688 96.871094 29.960938 96.871094 C 30.859375 96.871094 31.699219 97.4375 31.699219 98.707031 Z M 31.699219 98.707031 "/>
<path style=" stroke:none;fill-rule:nonzero;fill:rgb(0%,0%,0%);fill-opacity:1;" d="M 37.917969 103.832031 C 37.917969 103.792969 37.917969 103.773438 37.703125 103.558594 C 36.160156 101.996094 35.75 99.632812 35.75 97.71875 C 35.75 95.550781 36.21875 93.382812 37.761719 91.839844 C 37.917969 91.683594 37.917969 91.664062 37.917969 91.625 C 37.917969 91.527344 37.878906 91.488281 37.800781 91.488281 C 37.664062 91.488281 36.550781 92.347656 35.808594 93.929688 C 35.183594 95.296875 35.027344 96.683594 35.027344 97.71875 C 35.027344 98.695312 35.164062 100.199219 35.847656 101.625 C 36.609375 103.148438 37.664062 103.96875 37.800781 103.96875 C 37.878906 103.96875 37.917969 103.929688 37.917969 103.832031 Z M 37.917969 103.832031 "/>
<path style=" stroke:none;fill-rule:nonzero;fill:rgb(0%,0%,0%);fill-opacity:1;" d="M 47.292969 90.453125 C 47.292969 90.21875 47.058594 90.21875 46.882812 90.21875 L 40.085938 90.21875 C 39.910156 90.21875 39.675781 90.21875 39.675781 90.453125 C 39.675781 90.707031 39.910156 90.707031 40.085938 90.707031 L 46.882812 90.707031 C 47.058594 90.707031 47.292969 90.707031 47.292969 90.453125 Z M 47.292969 90.453125 "/>
<path style=" stroke:none;fill-rule:nonzero;fill:rgb(0%,0%,0%);fill-opacity:1;" d="M 50.398438 90.453125 C 50.398438 90.394531 50.339844 90.355469 50.300781 90.335938 C 48.953125 89.867188 47.976562 88.714844 47.742188 87.328125 C 47.722656 87.269531 47.664062 87.210938 47.605469 87.210938 L 47.371094 87.210938 C 47.292969 87.210938 47.234375 87.269531 47.234375 87.367188 C 47.429688 88.519531 48.09375 89.535156 49.011719 90.21875 L 39.578125 90.21875 C 39.421875 90.21875 39.324219 90.335938 39.324219 90.453125 C 39.324219 90.589844 39.421875 90.707031 39.578125 90.707031 L 49.011719 90.707031 C 48.09375 91.390625 47.429688 92.40625 47.234375 93.558594 C 47.234375 93.65625 47.292969 93.714844 47.371094 93.714844 L 47.605469 93.714844 C 47.664062 93.714844 47.722656 93.65625 47.742188 93.597656 C 47.976562 92.210938 48.953125 91.058594 50.300781 90.589844 C 50.339844 90.570312 50.398438 90.53125 50.398438 90.453125 Z M 50.398438 90.453125 "/>
<path style=" stroke:none;fill-rule:nonzero;fill:rgb(0%,0%,0%);fill-opacity:1;" d="M 49.0625 94.867188 L 49.316406 92.699219 C 49.355469 92.367188 49.296875 92.367188 48.984375 92.367188 L 42.871094 92.367188 C 42.636719 92.367188 42.5 92.367188 42.5 92.621094 C 42.5 92.757812 42.617188 92.757812 42.851562 92.757812 C 43.320312 92.757812 43.671875 92.757812 43.671875 92.972656 C 43.671875 93.03125 43.671875 93.050781 43.59375 93.285156 L 41.953125 99.867188 C 41.835938 100.355469 41.816406 100.453125 40.820312 100.453125 C 40.605469 100.453125 40.46875 100.453125 40.46875 100.6875 C 40.46875 100.84375 40.625 100.84375 40.664062 100.84375 L 42.304688 100.804688 L 44.160156 100.84375 C 44.277344 100.84375 44.414062 100.84375 44.414062 100.609375 C 44.414062 100.511719 44.355469 100.472656 44.355469 100.472656 C 44.316406 100.453125 44.277344 100.453125 44.003906 100.453125 C 43.730469 100.453125 43.671875 100.453125 43.359375 100.433594 C 42.988281 100.394531 42.949219 100.335938 42.949219 100.179688 C 42.949219 100.179688 42.949219 100.082031 43.007812 99.90625 L 43.769531 96.800781 L 44.980469 96.800781 C 45.917969 96.800781 46.015625 96.996094 46.015625 97.347656 C 46.015625 97.445312 46.015625 97.582031 45.9375 97.972656 C 45.898438 98.03125 45.898438 98.109375 45.898438 98.109375 C 45.898438 98.207031 45.976562 98.246094 46.035156 98.246094 C 46.171875 98.246094 46.171875 98.207031 46.230469 97.992188 L 46.914062 95.277344 C 46.953125 95.140625 46.953125 95.121094 46.953125 95.082031 C 46.953125 95.082031 46.933594 94.945312 46.796875 94.945312 C 46.679688 94.945312 46.660156 95.003906 46.621094 95.21875 C 46.347656 96.175781 46.074219 96.410156 45 96.410156 L 43.867188 96.410156 L 44.667969 93.246094 C 44.785156 92.796875 44.804688 92.757812 45.351562 92.757812 L 46.992188 92.757812 C 48.515625 92.757812 48.808594 93.167969 48.808594 94.125 C 48.808594 94.417969 48.808594 94.457031 48.769531 94.808594 C 48.75 94.964844 48.75 94.984375 48.75 95.023438 C 48.75 95.082031 48.789062 95.179688 48.90625 95.179688 C 49.042969 95.179688 49.042969 95.101562 49.0625 94.867188 Z M 49.0625 94.867188 "/>
<path style=" stroke:none;fill-rule:nonzero;fill:rgb(0%,0%,0%);fill-opacity:1;" d="M 54.6875 97.71875 C 54.6875 96.761719 54.550781 95.257812 53.867188 93.832031 C 53.125 92.308594 52.050781 91.488281 51.933594 91.488281 C 51.855469 91.488281 51.796875 91.546875 51.796875 91.625 C 51.796875 91.664062 51.796875 91.683594 52.03125 91.917969 C 53.261719 93.148438 53.964844 95.121094 53.964844 97.71875 C 53.964844 99.867188 53.515625 102.054688 51.972656 103.617188 C 51.796875 103.773438 51.796875 103.792969 51.796875 103.832031 C 51.796875 103.910156 51.855469 103.96875 51.933594 103.96875 C 52.050781 103.96875 53.183594 103.109375 53.90625 101.527344 C 54.550781 100.160156 54.6875 98.773438 54.6875 97.71875 Z M 54.6875 97.71875 "/>
<path style="fill-rule:nonzero;fill:rgb(0%,0%,0%);fill-opacity:1;stroke-width:0.3985;stroke-linecap:butt;stroke-linejoin:miter;stroke:rgb(0%,0%,0%);stroke-opacity:1;stroke-miterlimit:10;" d="M 71.8615 0.00075 C 71.8615 0.547625 71.414625 0.991375 70.86775 0.991375 C 70.31775 0.991375 69.877125 0.547625 69.877125 0.00075 C 69.877125 -0.546125 70.31775 -0.993 70.86775 -0.993 C 71.414625 -0.993 71.8615 -0.546125 71.8615 0.00075 Z M 71.8615 0.00075 " transform="matrix(1.25,0,0,-1.25,33.1575,80.00875)"/>
<path style=" stroke:none;fill-rule:nonzero;fill:rgb(0%,0%,0%);fill-opacity:1;" d="M 137.097656 92.988281 L 137.097656 92.597656 L 136.785156 92.597656 C 135.828125 92.597656 135.808594 92.460938 135.808594 92.011719 L 135.808594 85.449219 C 135.808594 85 135.828125 84.863281 136.785156 84.863281 L 137.097656 84.863281 L 137.097656 84.472656 L 134.988281 84.472656 C 134.65625 84.472656 134.65625 84.492188 134.578125 84.707031 L 131.84375 91.738281 L 129.148438 84.746094 C 129.03125 84.472656 128.992188 84.472656 128.699219 84.472656 L 126.609375 84.472656 L 126.609375 84.863281 L 126.902344 84.863281 C 127.859375 84.863281 127.878906 85 127.878906 85.449219 L 127.878906 91.679688 C 127.878906 92.011719 127.878906 92.597656 126.609375 92.597656 L 126.609375 92.988281 L 128.054688 92.949219 L 129.519531 92.988281 L 129.519531 92.597656 C 128.230469 92.597656 128.230469 92.011719 128.230469 91.679688 L 128.230469 84.960938 L 128.25 84.960938 L 131.257812 92.714844 C 131.316406 92.871094 131.375 92.988281 131.492188 92.988281 C 131.628906 92.988281 131.667969 92.890625 131.726562 92.753906 L 134.792969 84.863281 L 134.792969 84.863281 L 134.792969 92.011719 C 134.792969 92.460938 134.773438 92.597656 133.816406 92.597656 L 133.523438 92.597656 L 133.523438 92.988281 C 133.972656 92.949219 134.832031 92.949219 135.320312 92.949219 C 135.789062 92.949219 136.628906 92.949219 137.097656 92.988281 Z M 137.097656 92.988281 "/>
<path style="fill:none;stroke-width:0.79701;stroke-linecap:butt;stroke-linejoin:miter;stroke:rgb(0%,0%,0%);stroke-opacity:1;stroke-miterlimit:10;" d="M 70.86775 0.00075 L 77.1865 37.916375 " transform="matrix(1.25,0,0,-1.25,33.1575,80.00875)"/>
<path style=" stroke:none;fill-rule:nonzero;fill:rgb(0%,0%,0%);fill-opacity:1;" d="M 130.601562 26.859375 C 129.996094 28.511719 128.574219 31.125 127.132812 32.851562 L 131.933594 33.652344 C 131.132812 31.546875 130.632812 28.617188 130.601562 26.859375 "/>
<path style=" stroke:none;fill-rule:nonzero;fill:rgb(0%,0%,0%);fill-opacity:1;" d="M 143.898438 11.820312 C 143.898438 11.585938 143.664062 11.585938 143.488281 11.585938 L 136.691406 11.585938 C 136.515625 11.585938 136.28125 11.585938 136.28125 11.820312 C 136.28125 12.074219 136.515625 12.074219 136.691406 12.074219 L 143.488281 12.074219 C 143.664062 12.074219 143.898438 12.074219 143.898438 11.820312 Z M 143.898438 11.820312 "/>
<path style=" stroke:none;fill-rule:nonzero;fill:rgb(0%,0%,0%);fill-opacity:1;" d="M 147.003906 11.820312 C 147.003906 11.761719 146.945312 11.722656 146.90625 11.703125 C 145.558594 11.234375 144.582031 10.082031 144.347656 8.695312 C 144.328125 8.636719 144.269531 8.578125 144.210938 8.578125 L 143.976562 8.578125 C 143.898438 8.578125 143.839844 8.636719 143.839844 8.734375 C 144.035156 9.886719 144.699219 10.902344 145.617188 11.585938 L 136.183594 11.585938 C 136.027344 11.585938 135.929688 11.703125 135.929688 11.820312 C 135.929688 11.957031 136.027344 12.074219 136.183594 12.074219 L 145.617188 12.074219 C 144.699219 12.757812 144.035156 13.773438 143.839844 14.925781 C 143.839844 15.023438 143.898438 15.082031 143.976562 15.082031 L 144.210938 15.082031 C 144.269531 15.082031 144.328125 15.023438 144.347656 14.964844 C 144.582031 13.578125 145.558594 12.425781 146.90625 11.957031 C 146.945312 11.9375 147.003906 11.898438 147.003906 11.820312 Z M 147.003906 11.820312 "/>
<path style=" stroke:none;fill-rule:nonzero;fill:rgb(0%,0%,0%);fill-opacity:1;" d="M 145.667969 16.234375 L 145.921875 14.066406 C 145.960938 13.734375 145.902344 13.734375 145.589844 13.734375 L 139.476562 13.734375 C 139.242188 13.734375 139.105469 13.734375 139.105469 13.988281 C 139.105469 14.125 139.222656 14.125 139.457031 14.125 C 139.925781 14.125 140.277344 14.125 140.277344 14.339844 C 140.277344 14.398438 140.277344 14.417969 140.199219 14.652344 L 138.558594 21.234375 C 138.441406 21.722656 138.421875 21.820312 137.425781 21.820312 C 137.210938 21.820312 137.074219 21.820312 137.074219 22.054688 C 137.074219 22.210938 137.230469 22.210938 137.269531 22.210938 L 138.910156 22.171875 L 140.765625 22.210938 C 140.882812 22.210938 141.019531 22.210938 141.019531 21.976562 C 141.019531 21.878906 140.960938 21.839844 140.960938 21.839844 C 140.921875 21.820312 140.882812 21.820312 140.609375 21.820312 C 140.335938 21.820312 140.277344 21.820312 139.964844 21.800781 C 139.59375 21.761719 139.554688 21.703125 139.554688 21.546875 C 139.554688 21.546875 139.554688 21.449219 139.613281 21.273438 L 140.375 18.167969 L 141.585938 18.167969 C 142.523438 18.167969 142.621094 18.363281 142.621094 18.714844 C 142.621094 18.8125 142.621094 18.949219 142.542969 19.339844 C 142.503906 19.398438 142.503906 19.476562 142.503906 19.476562 C 142.503906 19.574219 142.582031 19.613281 142.640625 19.613281 C 142.777344 19.613281 142.777344 19.574219 142.835938 19.359375 L 143.519531 16.644531 C 143.558594 16.507812 143.558594 16.488281 143.558594 16.449219 C 143.558594 16.449219 143.539062 16.3125 143.402344 16.3125 C 143.285156 16.3125 143.265625 16.371094 143.226562 16.585938 C 142.953125 17.542969 142.679688 17.777344 141.605469 17.777344 L 140.472656 17.777344 L 141.273438 14.613281 C 141.390625 14.164062 141.410156 14.125 141.957031 14.125 L 143.597656 14.125 C 145.121094 14.125 145.414062 14.535156 145.414062 15.492188 C 145.414062 15.785156 145.414062 15.824219 145.375 16.175781 C 145.355469 16.332031 145.355469 16.351562 145.355469 16.390625 C 145.355469 16.449219 145.394531 16.546875 145.511719 16.546875 C 145.648438 16.546875 145.648438 16.46875 145.667969 16.234375 Z M 145.667969 16.234375 "/>
<path style="fill:none;stroke-width:0.3985;stroke-linecap:butt;stroke-linejoin:miter;stroke:rgb(0%,0%,0%);stroke-opacity:1;stroke-dasharray:2.98883,2.98883;stroke-miterlimit:10;" d="M 70.86775 0.00075 L 63.78025 -42.521125 L 62.008375 -53.14925 " transform="matrix(1.25,0,0,-1.25,33.1575,80.00875)"/>
<path style="fill:none;stroke-width:0.3985;stroke-linecap:butt;stroke-linejoin:miter;stroke:rgb(0%,0%,0%);stroke-opacity:1;stroke-dasharray:2.98883,2.98883;stroke-miterlimit:10;" d="M 0.002125 -28.34925 L 65.195875 -36.852375 " transform="matrix(1.25,0,0,-1.25,33.1575,80.00875)"/>
<path style=" stroke:none;fill-rule:nonzero;fill:rgb(0%,0%,0%);fill-opacity:1;" d="M 76.214844 131.160156 L 76.214844 130.847656 C 75.628906 130.847656 75.570312 130.789062 75.570312 130.359375 L 75.570312 125.105469 L 74.261719 125.203125 L 74.261719 125.515625 C 74.847656 125.515625 74.90625 125.59375 74.90625 126.003906 L 74.90625 127.820312 C 74.59375 127.507812 74.164062 127.3125 73.695312 127.3125 C 72.523438 127.3125 71.566406 128.191406 71.566406 129.285156 C 71.566406 130.378906 72.484375 131.238281 73.578125 131.238281 C 74.300781 131.238281 74.730469 130.867188 74.867188 130.710938 L 74.867188 131.238281 L 76.214844 131.160156 Z M 74.867188 130.242188 C 74.652344 130.652344 74.203125 131.003906 73.636719 131.003906 C 73.148438 131.003906 72.796875 130.710938 72.621094 130.457031 C 72.445312 130.203125 72.347656 129.851562 72.347656 129.304688 C 72.347656 129.089844 72.347656 128.445312 72.699219 128.035156 C 73.050781 127.644531 73.480469 127.566406 73.734375 127.566406 C 74.144531 127.566406 74.535156 127.761719 74.769531 128.074219 C 74.867188 128.210938 74.867188 128.210938 74.867188 128.386719 L 74.867188 130.242188 Z M 74.867188 130.242188 "/>
<path style="fill:none;stroke-width:0.3985;stroke-linecap:butt;stroke-linejoin:miter;stroke:rgb(0%,0%,0%);stroke-opacity:1;stroke-miterlimit:10;" d="M 73.702125 11.33825 C 77.674 11.77575 81.083375 9.503875 82.20525 5.672625 " transform="matrix(1.25,0,0,-1.25,33.1575,80.00875)"/>
<path style=" stroke:none;fill-rule:nonzero;fill:rgb(0%,0%,0%);fill-opacity:1;" d="M 142.023438 60.386719 C 142.023438 59.566406 141.808594 57.828125 140.539062 57.828125 C 138.800781 57.828125 136.886719 61.34375 136.886719 64.195312 C 136.886719 65.367188 137.238281 66.753906 138.371094 66.753906 C 140.128906 66.753906 142.023438 63.179688 142.023438 60.386719 Z M 140.8125 62.085938 L 138.195312 62.085938 C 138.410156 61.304688 138.664062 60.308594 139.171875 59.410156 C 139.503906 58.804688 139.953125 58.101562 140.519531 58.101562 C 141.125 58.101562 141.203125 58.902344 141.203125 59.605469 C 141.203125 60.230469 141.105469 60.855469 140.8125 62.085938 Z M 140.695312 62.496094 C 140.558594 63.0625 140.304688 64.117188 139.816406 65.015625 C 139.386719 65.875 138.917969 66.480469 138.371094 66.480469 C 137.960938 66.480469 137.707031 66.109375 137.707031 64.957031 C 137.707031 64.429688 137.785156 63.707031 138.097656 62.496094 L 140.695312 62.496094 Z M 140.695312 62.496094 "/>
<path style="fill:none;stroke-width:0.3985;stroke-linecap:butt;stroke-linejoin:miter;stroke:rgb(0%,0%,0%);stroke-opacity:1;stroke-miterlimit:10;" d="M 68.033375 -11.33675 C 64.0615 -11.777375 60.649 -9.5055 59.53025 -5.668 " transform="matrix(1.25,0,0,-1.25,33.1575,80.00875)"/>
<path style=" stroke:none;fill-rule:nonzero;fill:rgb(0%,0%,0%);fill-opacity:1;" d="M 106.589844 95.816406 C 106.589844 94.996094 106.375 93.257812 105.105469 93.257812 C 103.367188 93.257812 101.453125 96.773438 101.453125 99.625 C 101.453125 100.796875 101.804688 102.183594 102.9375 102.183594 C 104.695312 102.183594 106.589844 98.609375 106.589844 95.816406 Z M 105.378906 97.515625 L 102.761719 97.515625 C 102.976562 96.734375 103.230469 95.738281 103.738281 94.839844 C 104.070312 94.234375 104.519531 93.53125 105.085938 93.53125 C 105.691406 93.53125 105.769531 94.332031 105.769531 95.035156 C 105.769531 95.660156 105.671875 96.285156 105.378906 97.515625 Z M 105.261719 97.925781 C 105.125 98.492188 104.871094 99.546875 104.382812 100.445312 C 103.953125 101.304688 103.484375 101.910156 102.9375 101.910156 C 102.527344 101.910156 102.273438 101.539062 102.273438 100.386719 C 102.273438 99.859375 102.351562 99.136719 102.664062 97.925781 L 105.261719 97.925781 Z M 105.261719 97.925781 "/>
<path style="fill:none;stroke-width:0.3985;stroke-linecap:butt;stroke-linejoin:miter;stroke:rgb(0%,0%,0%);stroke-opacity:1;stroke-dasharray:2.98883,2.98883;stroke-miterlimit:10;" d="M 0.002125 -28.34925 L 70.86775 0.00075 L 106.302125 14.17575 " transform="matrix(1.25,0,0,-1.25,33.1575,80.00875)"/>
<path style="fill:none;stroke-width:0.3985;stroke-linecap:butt;stroke-linejoin:miter;stroke:rgb(0%,0%,0%);stroke-opacity:1;stroke-miterlimit:10;" d="M 60.2365 -36.139875 L 60.945875 -31.889875 L 65.195875 -32.59925 " transform="matrix(1.25,0,0,-1.25,33.1575,80.00875)"/>
<path style=" stroke:none;fill-rule:nonzero;fill:rgb(0%,0%,0%);fill-opacity:1;" d="M 125.996094 137.449219 L 125.996094 137.058594 L 125.683594 137.058594 C 124.726562 137.058594 124.707031 136.921875 124.707031 136.472656 L 124.707031 129.910156 C 124.707031 129.460938 124.726562 129.324219 125.683594 129.324219 L 125.996094 129.324219 L 125.996094 128.933594 C 125.546875 128.972656 124.628906 128.972656 124.160156 128.972656 C 123.691406 128.972656 122.753906 128.972656 122.324219 128.933594 L 122.324219 129.324219 L 122.617188 129.324219 C 123.574219 129.324219 123.59375 129.460938 123.59375 129.910156 L 123.59375 132.820312 L 119.882812 132.820312 L 119.882812 129.910156 C 119.882812 129.460938 119.902344 129.324219 120.859375 129.324219 L 121.152344 129.324219 L 121.152344 128.933594 C 120.722656 128.972656 119.804688 128.972656 119.316406 128.972656 C 118.847656 128.972656 117.910156 128.972656 117.480469 128.933594 L 117.480469 129.324219 L 117.773438 129.324219 C 118.730469 129.324219 118.769531 129.460938 118.769531 129.910156 L 118.769531 136.472656 C 118.769531 136.921875 118.730469 137.058594 117.773438 137.058594 L 117.480469 137.058594 L 117.480469 137.449219 C 117.910156 137.410156 118.847656 137.410156 119.316406 137.410156 C 119.785156 137.410156 120.722656 137.410156 121.152344 137.449219 L 121.152344 137.058594 L 120.859375 137.058594 C 119.902344 137.058594 119.882812 136.921875 119.882812 136.472656 L 119.882812 133.210938 L 123.59375 133.210938 L 123.59375 136.472656 C 123.59375 136.921875 123.574219 137.058594 122.617188 137.058594 L 122.324219 137.058594 L 122.324219 137.449219 C 122.753906 137.410156 123.671875 137.410156 124.140625 137.410156 C 124.628906 137.410156 125.546875 137.410156 125.996094 137.449219 Z M 125.996094 137.449219 "/>
</g>
</svg>
